<?xml version="1.0" encoding="utf-8"?>
<!-- Generator: Adobe Illustrator 27.3.1, SVG Export Plug-In . SVG Version: 6.00 Build 0)  -->
<svg version="1.1" id="Layer_1" xmlns="http://www.w3.org/2000/svg" xmlns:xlink="http://www.w3.org/1999/xlink" x="0px" y="0px"
	 viewBox="0 0 1200 627" style="enable-background:new 0 0 1200 627;" xml:space="preserve">
<style type="text/css">
	.st0{fill:#091E3F;}
	.st1{fill:#C6232A;}
</style>
<path class="st0" d="M38.2,10.7v110.6H121c0,0,69.3-2.6,68.8,64.4c-0.5,67,0,418.8,0,418.8h131.6V200.8c0,0-1.8-28.6,9.6-49.9
	c0,0,10.2-31.7,56-31l575.2,1.4V10.7H38.2z"/>
<path class="st0" d="M963.6,160.3l-559,0c0,0-46.5-1.6-46.5,47.8s0,208.7,0,208.7h492.8v56.9H358.1v130.9h605.5V318.9H473.9V267
	h489.7V160.3"/>
<rect x="997.3" y="160.3" class="st0" width="112.7" height="444.2"/>
<rect x="997.3" y="10.7" class="st1" width="112.7" height="112.4"/>
</svg>
